<svg width="30" height="30" viewBox="0 0 30 30" fill="none" xmlns="http://www.w3.org/2000/svg">
<path d="M9.85625 20.77C10.0338 20.77 10.1821 20.71 10.3013 20.59C10.4204 20.47 10.4804 20.3212 10.4813 20.1437V5.625C10.4813 5.4475 10.4213 5.29917 10.3013 5.18C10.1813 5.06 10.0325 5 9.855 5C9.6775 5 9.52917 5.06 9.41 5.18C9.29083 5.3 9.23125 5.44833 9.23125 5.625V20.145C9.23125 20.3217 9.29125 20.47 9.41125 20.59C9.53125 20.71 9.67958 20.7708 9.85625 20.77ZM22.9813 26.25H7.7875C7.0125 26.25 6.35417 25.9792 5.8125 25.4375C5.27083 24.8942 5 24.2358 5 23.4625V6.5375C5 5.76333 5.27083 5.105 5.8125 4.5625C6.35583 4.02083 7.01417 3.75 7.7875 3.75H14.7025C14.2983 4.38333 13.9825 5.06667 13.755 5.8C13.5275 6.53417 13.4137 7.30917 13.4137 8.125C13.4137 10.2867 14.1179 12.1583 15.5262 13.74C16.9346 15.3217 18.6825 16.2442 20.77 16.5075V20C20.77 20.555 20.5721 21.03 20.1763 21.425C19.7804 21.8217 19.305 22.02 18.75 22.02H7.7875C7.37 22.02 7.00958 22.1621 6.70625 22.4463C6.40208 22.7321 6.25 23.085 6.25 23.505C6.25 23.925 6.40208 24.2792 6.70625 24.5675C7.01042 24.8558 7.37125 25 7.78875 25H22.9813C23.2054 25 23.3896 24.9279 23.5337 24.7837C23.6779 24.6396 23.75 24.4554 23.75 24.2313V16.3688C23.9833 16.3121 24.2004 16.2513 24.4012 16.1863C24.6012 16.1213 24.8008 16.0442 25 15.955V24.22C25 24.7867 24.8021 25.2667 24.4062 25.66C24.0112 26.0533 23.5363 26.25 22.9813 26.25ZM21.875 14.375C21.875 12.6325 22.4813 11.1554 23.6938 9.94375C24.9062 8.73208 26.3833 8.12583 28.125 8.125C26.3825 8.125 24.9054 7.51875 23.6938 6.30625C22.4821 5.09375 21.8758 3.61667 21.875 1.875C21.875 3.6175 21.2687 5.095 20.0562 6.3075C18.8438 7.52 17.3667 8.12583 15.625 8.125C17.3675 8.125 18.845 8.73125 20.0575 9.94375C21.27 11.1562 21.8758 12.6333 21.875 14.375Z" fill="white"/>
</svg>
