<svg width="12" height="11" viewBox="0 0 12 11" fill="none" xmlns="http://www.w3.org/2000/svg">
<path fill-rule="evenodd" clip-rule="evenodd" d="M1.1051 0.305288C1.29263 0.117817 1.54694 0.0125018 1.8121 0.0125018C2.07727 0.0125018 2.33158 0.117817 2.5191 0.305288L6.3121 4.09829L10.1051 0.305288C10.1974 0.209778 10.3077 0.133596 10.4297 0.0811869C10.5517 0.0287779 10.6829 0.00119157 10.8157 3.77571e-05C10.9485 -0.00111606 11.0802 0.0241854 11.2031 0.0744663C11.326 0.124747 11.4376 0.199 11.5315 0.292893C11.6254 0.386786 11.6996 0.498438 11.7499 0.621334C11.8002 0.744231 11.8255 0.87591 11.8244 1.00869C11.8232 1.14147 11.7956 1.27269 11.7432 1.39469C11.6908 1.5167 11.6146 1.62704 11.5191 1.71929L7.7261 5.51229L11.5191 9.30529C11.7013 9.49389 11.8021 9.74649 11.7998 10.0087C11.7975 10.2709 11.6923 10.5217 11.5069 10.7071C11.3215 10.8925 11.0707 10.9977 10.8085 11C10.5463 11.0022 10.2937 10.9014 10.1051 10.7193L6.3121 6.92629L2.5191 10.7193C2.3305 10.9014 2.0779 11.0022 1.8157 11C1.55351 10.9977 1.30269 10.8925 1.11728 10.7071C0.931877 10.5217 0.826707 10.2709 0.824429 10.0087C0.822151 9.74649 0.922945 9.49389 1.1051 9.30529L4.8981 5.51229L1.1051 1.71929C0.917632 1.53176 0.812317 1.27745 0.812317 1.01229C0.812317 0.747124 0.917632 0.492816 1.1051 0.305288Z" fill="#1E1E1E"/>
</svg>
