<svg width="19" height="18" viewBox="0 0 19 18" fill="none" xmlns="http://www.w3.org/2000/svg">
<path d="M4.99992 0.5H13.3333V11.3333L7.49992 17.1667L6.45825 16.125C6.36103 16.0278 6.28103 15.8958 6.21825 15.7292C6.15547 15.5625 6.12436 15.4028 6.12492 15.25V14.9583L7.04158 11.3333H2.49992C2.05547 11.3333 1.66659 11.1667 1.33325 10.8333C0.999919 10.5 0.833252 10.1111 0.833252 9.66667V8C0.833252 7.90278 0.84353 7.79861 0.864085 7.6875C0.884641 7.57639 0.91603 7.47222 0.958252 7.375L3.45825 1.5C3.58325 1.22222 3.79159 0.986111 4.08325 0.791667C4.37492 0.597222 4.68047 0.5 4.99992 0.5ZM14.9999 11.3333V0.5H18.3333V11.3333H14.9999Z" fill="#1C1C5E"/>
</svg>
