<svg width="20" height="20" viewBox="0 0 20 20" fill="none" xmlns="http://www.w3.org/2000/svg">
<path d="M15 17.5H6.66663V6.66667L12.5 0.833336L13.5416 1.875C13.6388 1.97222 13.7188 2.10417 13.7816 2.27084C13.8444 2.4375 13.8755 2.59722 13.875 2.75V3.04167L12.9583 6.66667H17.5C17.9444 6.66667 18.3333 6.83334 18.6666 7.16667C19 7.5 19.1666 7.88889 19.1666 8.33334V10C19.1666 10.0972 19.1563 10.2014 19.1358 10.3125C19.1152 10.4236 19.0838 10.5278 19.0416 10.625L16.5416 16.5C16.4166 16.7778 16.2083 17.0139 15.9166 17.2083C15.625 17.4028 15.3194 17.5 15 17.5ZM4.99996 6.66667V17.5H1.66663V6.66667H4.99996Z" fill="#1C1C5E"/>
</svg>
